<svg width="128" height="128" viewBox="0 0 128 128" fill="none" xmlns="http://www.w3.org/2000/svg">
<rect width="128" height="128" fill="white"/>
<path d="M98.2948 98.5329C104.216 98.5329 108.624 94.2496 108.624 88.4556C108.624 82.5342 104.341 78.3784 98.2948 78.3784C92.3759 78.3784 88.0913 82.5342 88.0913 88.4556C88.0913 94.3745 92.3746 98.5329 98.2948 98.5329Z" fill="#E80000"/>
<path d="M48.4147 99.2879C65.0609 99.2879 75.754 90.8967 75.754 77.6341C75.754 67.3486 69.1221 60.1752 57.3474 57.4682L50.1753 55.7089L49.1278 55.4666C43.2013 54.0493 40.2949 52.4756 40.2949 47.9954C40.2949 44.0705 43.4083 41.9048 48.6861 41.9048C65.4647 41.9048 71.5464 47.9954 71.5464 47.9954V34.8009L71.3306 34.5889C70.1166 33.4632 63.6701 28.2358 48.551 28.2358C32.5814 28.2358 22.5659 36.3545 22.5659 49.0757C22.5659 59.1782 29.0931 66.1471 40.8653 69.0851L48.2797 70.8646C54.5053 72.3538 57.6187 73.978 57.6187 78.7144C57.6187 83.0457 54.2352 85.4814 48.2797 85.4814C31.1262 85.4826 22.5659 76.3178 22.5659 76.3178V92.1411L22.7855 92.3733C24.0236 93.6025 30.706 99.2879 48.4147 99.2879Z" fill="url(#paint0_linear_485_11854)"/>
<defs>
<linearGradient id="paint0_linear_485_11854" x1="25432.8" y1="-1.55673" x2="25432.8" y2="12528.9" gradientUnits="userSpaceOnUse">
<stop stop-color="#9D39FF"/>
<stop offset="1" stop-color="#A380FF"/>
</linearGradient>
</defs>
</svg>
